#N canvas 451 357 1263 602 10;
#X obj 162 395 s \$1;
#X obj 137 19 r \$1;
#X msg 137 41 set \$1;
#X obj 130 510 s control-change;
#X msg 130 432 clear \, \$1;
#X obj 130 342 t f f;
#X obj 130 481 list prepend \$1;
#X obj 130 456 pipe 50;
#X obj 299 105 tgl 15 0 empty empty empty 17 7 0 10 -262144 -1 -1 0
1;
#X obj 682 185 r randomize;
#X obj 718 214 spigot 1;
#X obj 771 120 select 0;
#X msg 771 142 1;
#X msg 819 145 0;
#X obj 718 263 s \$1;
#X obj 967 117 r dump-request;
#X obj 967 170 f;
#X obj 985 147 r \$1;
#X obj 967 221 list prepend \$1;
#X obj 967 243 s dump-response;
#X obj 105 104 vradio 15 1 1 9 empty empty empty 0 -8 0 10 -262144
-1 -1 1;
#X text 123 104 Triangle;
#X text 123 119 Sin;
#X text 123 134 Square;
#X text 123 149 Saw;
#X text 123 179 Breaker;
#X text 123 194 Tan;
#X text 123 209 Whistle;
#X text 123 165 White;
#X text 123 226 Pink;
#X obj 718 236 random \$2;
#X obj 288 23 r lock-all;
#X msg 288 45 1;
#X obj 375 23 r unlock-all;
#X msg 375 45 0;
#X connect 1 0 2 0;
#X connect 2 0 20 0;
#X connect 4 0 7 0;
#X connect 5 0 4 0;
#X connect 5 1 0 0;
#X connect 6 0 3 0;
#X connect 7 0 6 0;
#X connect 8 0 11 0;
#X connect 9 0 10 0;
#X connect 10 0 30 0;
#X connect 11 0 12 0;
#X connect 11 1 13 0;
#X connect 12 0 10 1;
#X connect 13 0 10 1;
#X connect 15 0 16 0;
#X connect 16 0 18 0;
#X connect 17 0 16 1;
#X connect 18 0 19 0;
#X connect 20 0 5 0;
#X connect 30 0 14 0;
#X connect 31 0 32 0;
#X connect 32 0 8 0;
#X connect 33 0 34 0;
#X connect 34 0 8 0;
#X coords 0 -1 1 1 218 154 1 100 90;
