#N canvas 654 199 1086 735 10;
#X obj 702 529 *~;
#X obj 702 631 *~ 0.5;
#X obj 702 673 dac~;
#X obj 745 33 r attack-time;
#X obj 772 54 r sustain-time;
#X obj 799 76 r decay-time;
#X obj 584 18 r control-change;
#X obj 584 47 bang;
#N canvas 0 50 450 250 (subpatch) 0;
#X array wave 68883 float 2;
#X coords 0 1 68883 -1 200 140 1 0 0;
#X restore 57 561 graph;
#X obj 585 674 tabwrite~ wave;
#X obj 295 624 bng 32 250 50 0 empty empty empty 17 7 0 10 -262144
-1 -1;
#X obj 786 148 r frequency;
#N canvas 65 81 450 250 (subpatch) 0;
#X array waveform 792 float 2;
#X coords 0 1 792 -1 200 140 1 0 0;
#X restore 58 403 graph;
#X obj 819 178 r control-change;
#N canvas 501 246 666 532 ASD 0;
#X obj 225 362 vline~;
#X msg 225 130 1;
#X obj 225 162 pack f f f f;
#X obj 225 198 unpack f f f f;
#X obj 273 236 +;
#X obj 225 275 pack f f f f;
#X msg 225 310 0 \, \$1 \$2 \, 0 \$4 \$3;
#X obj 164 49 inlet bang;
#X obj 274 52 inlet A;
#X obj 345 49 inlet S;
#X obj 435 46 inlet D;
#X obj 226 407 outlet~;
#X obj 374 288 +;
#X obj 374 310 s duration;
#X connect 0 0 11 0;
#X connect 1 0 2 0;
#X connect 2 0 3 0;
#X connect 3 0 5 0;
#X connect 3 1 4 0;
#X connect 3 1 5 1;
#X connect 3 2 4 1;
#X connect 3 3 5 3;
#X connect 3 3 12 1;
#X connect 4 0 5 2;
#X connect 4 0 12 0;
#X connect 5 0 6 0;
#X connect 6 0 0 0;
#X connect 7 0 1 0;
#X connect 8 0 2 1;
#X connect 9 0 2 2;
#X connect 10 0 2 3;
#X connect 12 0 13 0;
#X restore 701 126 pd ASD;
#N canvas 176 272 414 382 waveform-sampler 0;
#X obj 77 40 inlet bang;
#X obj 209 45 inlet frequency;
#X obj 77 215 t b b;
#X obj 191 232 f;
#X obj 191 287 array size waveform;
#X obj 77 348 tabwrite~ waveform;
#X obj 227 177 samplerate~;
#X obj 227 151 loadbang;
#X obj 209 205 *;
#X obj 209 102 swap 1;
#X obj 209 124 /;
#X obj 8 216 inlet~;
#X obj 191 260 * 3;
#X connect 0 0 2 0;
#X connect 1 0 9 0;
#X connect 2 0 5 0;
#X connect 2 1 3 0;
#X connect 3 0 12 0;
#X connect 6 0 8 1;
#X connect 7 0 6 0;
#X connect 8 0 3 1;
#X connect 9 0 10 0;
#X connect 9 1 10 1;
#X connect 10 0 8 0;
#X connect 11 0 5 0;
#X connect 12 0 4 0;
#X restore 751 275 pd waveform-sampler;
#X obj 881 249 r frequency;
#N canvas 198 631 795 425 waveforms 0;
#X obj 102 14 inlet frequency;
#X obj 218 12 inlet phase;
#X obj 132 259 outlet~;
#X obj 18 13 inlet type;
#N canvas 875 361 450 300 sin~ 0;
#X obj 192 55 inlet frequency;
#X obj 350 55 inlet phase;
#X obj 166 187 outlet~;
#X obj 79 59 inlet on;
#X obj 166 121 osc~ 440;
#X obj 79 135 switch~;
#X msg 289 108 0.25;
#X obj 166 25 r~ fm;
#X obj 167 94 +~ 0;
#X connect 0 0 8 1;
#X connect 1 0 6 0;
#X connect 3 0 5 0;
#X connect 4 0 2 0;
#X connect 6 0 4 1;
#X connect 7 0 8 0;
#X connect 8 0 4 0;
#X restore 130 134 pd sin~;
#N canvas 1015 668 450 300 triangle~ 0;
#X obj 224 46 inlet frequency;
#X obj 350 55 inlet phase;
#X obj 200 264 outlet~;
#X obj 79 59 inlet on;
#X obj 79 103 switch~;
#X obj 199 104 phasor~;
#X obj 325 97 bang;
#X obj 199 174 abs~;
#X obj 199 126 -~ 0.5;
#X obj 199 206 *~ 4;
#X obj 199 228 -~ 1;
#X msg 319 121 0.25;
#X obj 198 10 r~ fm;
#X obj 199 79 +~ 0;
#X connect 0 0 13 1;
#X connect 1 0 6 0;
#X connect 3 0 4 0;
#X connect 5 0 8 0;
#X connect 6 0 11 0;
#X connect 7 0 9 0;
#X connect 8 0 7 0;
#X connect 9 0 10 0;
#X connect 10 0 2 0;
#X connect 11 0 5 1;
#X connect 12 0 13 0;
#X connect 13 0 5 0;
#X restore 18 129 pd triangle~;
#X obj 18 106 == 0;
#X obj 130 111 == 1;
#N canvas 1124 641 450 300 saw~ 0;
#X obj 224 43 inlet frequency;
#X obj 350 55 inlet phase;
#X obj 199 207 outlet~;
#X obj 79 59 inlet on;
#X obj 79 103 switch~;
#X obj 199 104 phasor~;
#X obj 199 126 *~ 2;
#X obj 199 148 -~ 1;
#X obj 325 97 bang;
#X msg 319 121 0.25;
#X obj 198 12 r~ fm;
#X obj 199 81 +~ 0;
#X connect 0 0 11 1;
#X connect 1 0 8 0;
#X connect 3 0 4 0;
#X connect 5 0 6 0;
#X connect 6 0 7 0;
#X connect 7 0 2 0;
#X connect 8 0 9 0;
#X connect 9 0 5 1;
#X connect 10 0 11 0;
#X connect 11 0 5 0;
#X restore 292 130 pd saw~;
#X obj 292 107 == 3;
#N canvas 877 616 450 300 square~ 0;
#X obj 235 42 inlet frequency;
#X obj 350 55 inlet phase;
#X obj 209 210 outlet~;
#X obj 79 59 inlet on;
#X obj 79 103 switch~;
#X obj 210 113 osc~;
#X msg 331 112 0.25;
#X obj 210 157 clip~ -1 1;
#X obj 375 84 bang;
#X obj 210 135 *~ 100;
#X obj 209 21 r~ fm;
#X obj 210 90 +~ 0;
#X connect 0 0 11 1;
#X connect 1 0 8 0;
#X connect 3 0 4 0;
#X connect 5 0 9 0;
#X connect 6 0 5 1;
#X connect 7 0 2 0;
#X connect 8 0 6 0;
#X connect 9 0 7 0;
#X connect 10 0 11 0;
#X connect 11 0 5 0;
#X restore 210 131 pd square~;
#X obj 209 108 == 2;
#N canvas 1121 645 450 300 white~ 0;
#X obj 198 55 inlet frequency;
#X obj 350 55 inlet phase;
#X obj 199 207 outlet~;
#X obj 79 59 inlet on;
#X obj 79 103 switch~;
#X obj 199 104 noise~;
#X connect 3 0 4 0;
#X connect 5 0 2 0;
#X restore 563 126 pd white~;
#X obj 644 100 == 8;
#N canvas 1118 649 450 300 pink~ 0;
#X obj 198 55 inlet frequency;
#X obj 350 55 inlet phase;
#X obj 199 207 outlet~;
#X obj 79 59 inlet on;
#X obj 79 103 switch~;
#X connect 3 0 4 0;
#X restore 644 123 pd pink~;
#X obj 563 103 == 4;
#X connect 0 0 5 1;
#X connect 0 0 4 1;
#X connect 0 0 8 1;
#X connect 0 0 10 1;
#X connect 0 0 12 1;
#X connect 0 0 14 1;
#X connect 1 0 5 2;
#X connect 1 0 4 2;
#X connect 1 0 8 2;
#X connect 1 0 10 2;
#X connect 1 0 12 2;
#X connect 1 0 14 2;
#X connect 3 0 6 0;
#X connect 3 0 7 0;
#X connect 3 0 9 0;
#X connect 3 0 11 0;
#X connect 3 0 13 0;
#X connect 3 0 15 0;
#X connect 4 0 2 0;
#X connect 5 0 2 0;
#X connect 6 0 5 0;
#X connect 7 0 4 0;
#X connect 8 0 2 0;
#X connect 9 0 8 0;
#X connect 10 0 2 0;
#X connect 11 0 10 0;
#X connect 12 0 2 0;
#X connect 13 0 14 0;
#X connect 14 0 2 0;
#X connect 15 0 12 0;
#X restore 721 228 pd waveforms;
#X obj 722 171 r type;
#X obj 533 17 r type;
#X obj 847 210 r type;
#X obj 721 505 *~;
#X obj 740 409 r tremolo-speed;
#X obj 807 447 r tremolo-depth;
#N canvas 425 347 591 300 tremolo 0;
#X obj 148 85 osc~;
#X obj 186 194 *~ 1;
#X obj 147 25 inlet;
#X obj 222 131 inlet;
#X obj 186 268 outlet~;
#X obj 234 193 * -1;
#X obj 234 215 + 1;
#X obj 186 236 +~ 0;
#X text 13 127 LFO from 0 to 1;
#X obj 148 107 +~ 1;
#X obj 148 129 /~ 2;
#X text 277 207 <- mix dry/wet : interpolate between depth;
#X connect 0 0 9 0;
#X connect 1 0 7 0;
#X connect 2 0 0 0;
#X connect 3 0 1 1;
#X connect 3 0 5 0;
#X connect 5 0 6 0;
#X connect 6 0 7 1;
#X connect 7 0 4 0;
#X connect 9 0 10 0;
#X connect 10 0 1 0;
#X restore 740 476 pd tremolo;
#N canvas 812 457 647 440 bit-crusher 0;
#X obj 156 10 inlet~;
#X obj 374 12 inlet;
#X obj 157 405 outlet~;
#X obj 216 8 inlet;
#X obj 217 184 loadbang;
#X obj 217 208 samplerate~;
#X obj 156 331 samphold~;
#X obj 217 306 phasor~ 500;
#X obj 298 13 inlet;
#X obj 374 71 pack f f;
#X msg 374 93 0 \, \$2 1000;
#X obj 374 115 vline~;
#X obj 291 89 sig~ 0;
#X obj 340 156 +~;
#X obj 217 276 /~;
#X obj 340 178 clip~ 0 1;
#X obj 217 232 sig~ 1;
#X obj 340 222 +~ 2;
#X obj 340 200 *~ 64;
#X connect 0 0 6 0;
#X connect 1 0 9 0;
#X connect 3 0 12 0;
#X connect 4 0 5 0;
#X connect 5 0 16 0;
#X connect 6 0 2 0;
#X connect 7 0 6 1;
#X connect 8 0 9 1;
#X connect 9 0 10 0;
#X connect 10 0 11 0;
#X connect 11 0 13 1;
#X connect 12 0 13 0;
#X connect 13 0 15 0;
#X connect 14 0 7 0;
#X connect 15 0 18 0;
#X connect 16 0 14 0;
#X connect 17 0 14 1;
#X connect 18 0 17 0;
#X restore 701 590 pd bit-crusher;
#X obj 792 541 r bit-sweep;
#X obj 765 518 r bit-crush;
#X obj 584 77 s trigger;
#X obj 585 600 r trigger;
#X obj 796 565 r trigger;
#X obj 661 47 r trigger;
#X obj 59 16 bng 32 250 50 0 control-change control-change empty 17
7 0 10 -262144 -1 -1;
#X text 269 599 Export to WAV;
#N canvas 562 587 800 448 export-audio 1;
#X obj 209 19 r duration;
#X obj 13 162 soundfiler;
#X obj 13 15 inlet save;
#X obj 273 79 samplerate~;
#X obj 244 116 *;
#X obj 209 81 / 1000;
#X obj 244 167 array size wave;
#X obj 209 41 t f b;
#X text 307 20 <- we receive duration when sound is triggered;
#X text 379 78 <- we convert duration in ms to sample count by multiplying
samplerate (sample count per seconds) by duration in seconds., f 39
;
#X obj 13 56 savepanel;
#X msg 13 101 write -wave \$1 wave;
#X obj 97 55 r export-wave;
#X connect 0 0 7 0;
#X connect 2 0 10 0;
#X connect 3 0 4 1;
#X connect 4 0 6 0;
#X connect 5 0 4 0;
#X connect 7 0 5 0;
#X connect 7 1 3 0;
#X connect 10 0 11 0;
#X connect 11 0 1 0;
#X connect 12 0 11 0;
#X restore 295 673 pd export-audio;
#X obj 438 673 presets;
#X obj 438 623 bng 32 250 50 0 empty empty empty 17 7 0 10 -262144
-1 -1;
#X text 436 602 Save;
#X obj 484 623 bng 32 250 50 0 empty empty empty 17 7 0 10 -262144
-1 -1;
#X text 482 602 Load;
#X text 447 585 PRESETS;
#X obj 321 15 bng 32 250 50 0 randomize randomize empty 17 7 0 10 -262144
-1 -1;
#X text 249 24 Randomize;
#X obj 441 16 r randomize;
#X obj 57 65 control attack-time 0 1000;
#X obj 57 229 control-select type 5;
#N canvas 339 482 851 563 pitch 0;
#X obj 73 73 r vibrato-speed;
#X obj 97 139 r vibrato-depth;
#X obj 73 102 osc~;
#X obj 71 511 send~ fm;
#X obj 72 176 *~ 0;
#X obj 245 115 *~ 1000;
#X obj 245 137 clip~ 0 1;
#X obj 73 284 +~;
#X obj 244 91 -~ 0.5;
#X obj 385 22 r trigger;
#X obj 244 32 r pitch-jump-speed;
#X msg 385 49 0;
#X obj 271 197 r pitch-jump-range;
#X obj 246 228 *~ 0;
#X obj 244 66 phasor~ 1;
#X obj 495 257 pack f f;
#X obj 495 196 r duration;
#X obj 495 301 vline~;
#X obj 72 469 mtof~;
#X obj 72 423 +~ 0;
#X obj 97 378 r frequency;
#X obj 97 400 ftom;
#X msg 495 279 0 \, \$2 \$1;
#X obj 548 226 r pitch-slide;
#X text 191 415 <- we add the base frequency;
#X text 191 465 <- and finally convert back to frequency;
#X text 589 264 <- simple ramp from 0 to pitch slide value on the whole
sound duration, f 34;
#X text 375 107 <- the LFO square signal emulating arpeggiator;
#X connect 0 0 2 0;
#X connect 1 0 4 1;
#X connect 2 0 4 0;
#X connect 4 0 7 0;
#X connect 5 0 6 0;
#X connect 6 0 13 0;
#X connect 7 0 19 0;
#X connect 8 0 5 0;
#X connect 9 0 11 0;
#X connect 10 0 14 0;
#X connect 11 0 14 1;
#X connect 12 0 13 1;
#X connect 13 0 7 1;
#X connect 14 0 8 0;
#X connect 15 0 22 0;
#X connect 16 0 15 0;
#X connect 17 0 7 1;
#X connect 18 0 3 0;
#X connect 19 0 18 0;
#X connect 20 0 21 0;
#X connect 21 0 19 1;
#X connect 22 0 17 0;
#X connect 23 0 15 1;
#X restore 581 164 pd pitch;
#X obj 163 11 bng 16 250 50 0 lock-all lock-all empty 17 7 0 10 -262144
-1 -1;
#X obj 163 31 bng 16 250 50 0 unlock-all unlock-all empty 17 7 0 10
-262144 -1 -1;
#X text 181 11 Lock;
#X text 181 31 Unlock;
#X text 99 24 Play;
#X obj 57 188 control frequency 50 5000;
#X obj 57 105 control sustain-time 0 1000;
#X obj 57 145 control decay-time 0 1000;
#X obj 286 65 control tremolo-speed 0.1 16;
#X obj 286 102 control tremolo-depth 0 1;
#X obj 286 155 control vibrato-speed 0.1 16;
#X obj 286 422 control bit-sweep 0 1;
#X obj 286 385 control bit-crush 0 1;
#X obj 286 235 control pitch-jump-speed 2 20;
#X obj 286 272 control pitch-jump-range 0 24;
#X obj 286 192 control vibrato-depth 0 3;
#X obj 286 312 control pitch-slide -12 12;
#X connect 0 0 25 0;
#X connect 1 0 2 0;
#X connect 1 0 2 1;
#X connect 3 0 14 1;
#X connect 4 0 14 2;
#X connect 5 0 14 3;
#X connect 6 0 7 0;
#X connect 7 0 28 0;
#X connect 10 0 34 0;
#X connect 11 0 17 1;
#X connect 13 0 15 1;
#X connect 13 0 17 2;
#X connect 14 0 0 0;
#X connect 16 0 15 2;
#X connect 17 0 15 0;
#X connect 17 0 21 0;
#X connect 18 0 17 0;
#X connect 19 0 7 0;
#X connect 20 0 15 1;
#X connect 20 0 17 2;
#X connect 21 0 0 1;
#X connect 22 0 24 0;
#X connect 23 0 24 1;
#X connect 24 0 21 1;
#X connect 25 0 1 0;
#X connect 25 0 9 0;
#X connect 26 0 25 2;
#X connect 27 0 25 1;
#X connect 29 0 9 0;
#X connect 30 0 25 3;
#X connect 31 0 14 0;
#X connect 36 0 35 0;
#X connect 38 0 35 1;
#X connect 43 0 7 0;
