#N canvas 1013 410 845 395 10;
#X obj 102 37 inlet save;
#X obj 456 33 inlet load;
#X obj 102 76 savepanel;
#X obj 456 71 openpanel;
#X obj 183 370 textfile;
#X msg 331 234 clear;
#X obj 183 236 r dump-response;
#X obj 183 209 s dump-request;
#X obj 127 297 print;
#X obj 183 258 list prepend add;
#X obj 183 280 list trim;
#X msg 34 264 write \$1;
#X obj 160 135 t a b b;
#X obj 456 231 textfile;
#X obj 383 323 print;
#X obj 548 361 s;
#X obj 472 323 unpack s f;
#X obj 457 297 t b a a;
#X obj 570 327 unpack s f;
#X obj 564 270 s trigger;
#X msg 456 187 read \$1 \, rewind \, bang;
#X connect 0 0 2 0;
#X connect 1 0 3 0;
#X connect 2 0 12 0;
#X connect 3 0 20 0;
#X connect 5 0 4 0;
#X connect 6 0 8 0;
#X connect 6 0 9 0;
#X connect 9 0 10 0;
#X connect 10 0 4 0;
#X connect 11 0 4 0;
#X connect 12 0 11 0;
#X connect 12 1 7 0;
#X connect 12 2 5 0;
#X connect 13 0 14 0;
#X connect 13 0 17 0;
#X connect 13 1 19 0;
#X connect 16 1 15 0;
#X connect 17 0 13 0;
#X connect 17 1 16 0;
#X connect 17 2 18 0;
#X connect 18 0 15 1;
#X connect 20 0 13 0;
#X coords 0 395 1 394 85 60 0;
