#N canvas 741 146 1121 891 10;
#N canvas 0 50 450 250 (subpatch) 0;
#X array sample 4e+06 float 2;
#X coords 0 1 4e+06 -1 200 140 1;
#X restore 57 389 graph;
#X obj 892 690 dac~;
#X obj 892 653 *~ 1;
#N canvas 1019 231 824 686 sample-module 1;
#X obj 134 199 soundfiler;
#X msg 54 100 read -resize \$1 sample;
#X obj 41 292 nbx 10 14 -1e+37 1e+37 0 0 empty empty empty 0 -8 0 10
-262144 -1 -1 4e+06 256;
#X obj 54 73 symbol;
#X obj 256 593 tabread4~ sample;
#X obj 255 447 pack f f f;
#X obj 361 208 samplerate~;
#X obj 310 171 t f b;
#X obj 343 248 /;
#X obj 257 517 vline~;
#X obj 381 270 * 1000;
#X obj 378 376 f;
#X obj 322 343 t f b b;
#X obj 390 403 *;
#X obj 219 15 inlet;
#X obj 219 37 route load bang;
#X obj 256 615 outlet~;
#X obj 498 125 r offset;
#X obj 408 369 r speed;
#X obj 247 315 f 0;
#X obj 270 275 *;
#X msg 255 488 \$1 \, \$2 \$3;
#X obj 247 141 t b b;
#X obj 25 321 r offset;
#X obj 75 457 -;
#X obj 75 479 * -1;
#X obj 48 361 *;
#X connect 0 0 2 0;
#X connect 0 0 5 1;
#X connect 0 0 20 1;
#X connect 0 0 24 1;
#X connect 0 0 26 1;
#X connect 1 0 0 0;
#X connect 3 0 1 0;
#X connect 4 0 16 0;
#X connect 5 0 21 0;
#X connect 6 0 8 1;
#X connect 7 0 8 0;
#X connect 7 1 6 0;
#X connect 8 0 10 0;
#X connect 9 0 4 0;
#X connect 10 0 11 0;
#X connect 11 0 13 0;
#X connect 12 0 5 0;
#X connect 12 1 11 0;
#X connect 13 0 5 2;
#X connect 14 0 15 0;
#X connect 15 0 3 0;
#X connect 15 1 22 0;
#X connect 17 0 20 0;
#X connect 18 0 13 1;
#X connect 19 0 12 0;
#X connect 20 0 19 1;
#X connect 21 0 9 0;
#X connect 22 0 19 0;
#X connect 23 0 26 0;
#X connect 24 0 25 0;
#X connect 25 0 7 0;
#X connect 26 0 24 0;
#X restore 913 239 pd sample-module;
#X obj 59 16 bng 32 250 50 0 control-change control-change empty 17
7 0 10 -262144 -1 -1;
#X obj 321 15 bng 32 250 50 0 randomize randomize empty 17 7 0 10 -262144
-1 -1;
#X text 249 24 Randomize;
#X obj 163 11 bng 16 250 50 0 lock-all lock-all empty 17 7 0 10 -262144
-1 -1;
#X obj 163 31 bng 16 250 50 0 unlock-all unlock-all empty 17 7 0 10
-262144 -1 -1;
#X text 181 11 Lock;
#X text 181 31 Unlock;
#X text 99 24 Play;
#X obj 584 18 r control-change;
#X obj 584 47 bang;
#X obj 533 17 r type;
#X obj 584 77 s trigger;
#X obj 441 16 r randomize;
#X obj 913 207 r trigger;
#N canvas 0 50 450 250 (subpatch) 0;
#X array wave 25001 float 2;
#X coords 0 1 25001 -1 200 140 1 0 0;
#X restore 57 561 graph;
#X obj 295 624 bng 32 250 50 0 empty empty empty 17 7 0 10 -262144
-1 -1;
#N canvas 553 599 1242 448 export-audio 0;
#X obj 209 19 r duration;
#X obj 13 162 soundfiler;
#X obj 13 15 inlet save;
#X obj 273 79 samplerate~;
#X obj 244 116 *;
#X obj 209 81 / 1000;
#X obj 244 167 array size wave;
#X obj 209 41 t f b;
#X text 307 20 <- we receive duration when sound is triggered;
#X text 379 78 <- we convert duration in ms to sample count by multiplying
samplerate (sample count per seconds) by duration in seconds., f 39
;
#X obj 13 56 savepanel;
#X msg 13 101 write -wave \$1 wave;
#X obj 97 55 r export-wave;
#X obj 745 18 inlet save-incremental;
#X obj 854 109 savepanel;
#X obj 777 157 i 0;
#X obj 813 158 + 1;
#X msg 795 97 0;
#X obj 745 125 t b b;
#X obj 745 226 symbol;
#X obj 784 200 makefilename;
#X msg 854 158 set \$1-%d.wav;
#X msg 745 252 write -wave \$1 wave;
#X obj 745 275 soundfiler;
#X obj 745 64 route next begin;
#X text 937 27 Save sound as new file (incremental) Call begin to setup
basename Call next to save a new file, f 39;
#X connect 0 0 7 0;
#X connect 2 0 10 0;
#X connect 3 0 4 1;
#X connect 4 0 6 0;
#X connect 5 0 4 0;
#X connect 7 0 5 0;
#X connect 7 1 3 0;
#X connect 10 0 11 0;
#X connect 11 0 1 0;
#X connect 12 0 11 0;
#X connect 13 0 24 0;
#X connect 14 0 21 0;
#X connect 15 0 16 0;
#X connect 15 0 20 0;
#X connect 16 0 15 1;
#X connect 17 0 15 1;
#X connect 18 0 19 0;
#X connect 18 1 15 0;
#X connect 19 0 22 0;
#X connect 20 0 19 1;
#X connect 21 0 20 0;
#X connect 22 0 23 0;
#X connect 24 0 18 0;
#X connect 24 1 17 0;
#X connect 24 1 14 0;
#X restore 295 686 pd export-audio;
#X obj 511 673 presets;
#X obj 511 623 bng 32 250 50 0 empty empty empty 17 7 0 10 -262144
-1 -1;
#X text 509 602 Save;
#X obj 557 623 bng 32 250 50 0 empty empty empty 17 7 0 10 -262144
-1 -1;
#X text 555 602 Load;
#X text 520 575 PRESETS;
#X obj 736 685 tabwrite~ wave;
#X obj 736 611 r trigger;
#X obj 57 65 control attack-time 0 1000;
#X obj 57 105 control sustain-time 0 1000;
#X obj 57 145 control decay-time 0 1000;
#X obj 939 44 r attack-time;
#X obj 966 65 r sustain-time;
#X obj 993 87 r decay-time;
#N canvas 501 246 666 532 ASD 0;
#X obj 225 362 vline~;
#X msg 225 130 1;
#X obj 225 162 pack f f f f;
#X obj 225 198 unpack f f f f;
#X obj 273 236 +;
#X obj 225 275 pack f f f f;
#X msg 225 310 0 \, \$1 \$2 \, 0 \$4 \$3;
#X obj 164 49 inlet bang;
#X obj 274 52 inlet A;
#X obj 345 49 inlet S;
#X obj 435 46 inlet D;
#X obj 226 407 outlet~;
#X obj 374 288 +;
#X obj 374 310 s duration;
#X connect 0 0 11 0;
#X connect 1 0 2 0;
#X connect 2 0 3 0;
#X connect 3 0 5 0;
#X connect 3 1 4 0;
#X connect 3 1 5 1;
#X connect 3 2 4 1;
#X connect 3 3 5 3;
#X connect 3 3 12 1;
#X connect 4 0 5 2;
#X connect 4 0 12 0;
#X connect 5 0 6 0;
#X connect 6 0 0 0;
#X connect 7 0 1 0;
#X connect 8 0 2 1;
#X connect 9 0 2 2;
#X connect 10 0 2 3;
#X connect 12 0 13 0;
#X restore 895 137 pd ASD;
#X obj 855 58 r trigger;
#X obj 896 296 *~;
#X obj 895 585 *~ 1;
#X obj 57 205 control offset 0 1;
#X obj 58 245 control speed 0.5 7;
#X text 287 601 Single;
#X obj 364 623 bng 32 250 50 0 empty empty empty 17 7 0 10 -262144
-1 -1;
#X obj 416 623 bng 32 250 50 0 empty empty empty 17 7 0 10 -262144
-1 -1;
#X text 362 604 Begin;
#X msg 364 660 begin;
#X msg 416 660 next;
#X text 415 604 Save +;
#X text 321 576 EXPORT WAV;
#X obj 295 414 bng 32 250 50 0 empty empty empty 17 7 0 10 -262144
-1 -1;
#X text 277 391 Load Sample;
#N canvas 449 498 450 300 load 0;
#X obj 128 39 inlet;
#X obj 128 81 openpanel;
#X msg 128 103 load \$1;
#X obj 128 125 s load;
#X connect 0 0 1 0;
#X connect 1 0 2 0;
#X connect 2 0 3 0;
#X restore 295 476 pd load;
#X obj 989 207 r load;
#X msg 269 502 load original/416639__funwithsound__baby-gibberish-4.wav
;
#X obj 269 524 s load;
#X connect 2 0 1 0;
#X connect 2 0 1 1;
#X connect 3 0 37 1;
#X connect 12 0 13 0;
#X connect 13 0 15 0;
#X connect 14 0 13 0;
#X connect 16 0 13 0;
#X connect 17 0 3 0;
#X connect 19 0 20 0;
#X connect 22 0 21 0;
#X connect 24 0 21 1;
#X connect 28 0 27 0;
#X connect 32 0 35 1;
#X connect 33 0 35 2;
#X connect 34 0 35 3;
#X connect 35 0 37 0;
#X connect 36 0 35 0;
#X connect 37 0 38 0;
#X connect 38 0 2 0;
#X connect 38 0 27 0;
#X connect 42 0 45 0;
#X connect 43 0 46 0;
#X connect 45 0 20 1;
#X connect 46 0 20 1;
#X connect 49 0 51 0;
#X connect 52 0 3 0;
#X connect 53 0 54 0;
